<svg id="Icons" xmlns="http://www.w3.org/2000/svg" viewBox="0 0 500 500"><defs><style>.cls-1{fill:#fc1923;}</style></defs><path d="M180.81,254.24a43.21,43.21,0,0,0,12.67-6.84,29.36,29.36,0,0,0,4.16-4.12,20.14,20.14,0,0,0,3.23-5.5,22.71,22.71,0,0,0,1.5-7.14,28.73,28.73,0,0,0-1.09-9.08,21.11,21.11,0,0,0-5.2-9.73,18.81,18.81,0,0,0-8-4.73,23.67,23.67,0,0,0-9.1-.83,45.45,45.45,0,0,0-8.5,1.64,42.12,42.12,0,0,0-6.32,2.41l-2.64,1.31a121.34,121.34,0,0,1,11.55,20.27A179.28,179.28,0,0,1,180.81,254.24ZM182,212.19a16.55,16.55,0,0,1,5.82,2.27,15.26,15.26,0,0,1,4.16,4,17.91,17.91,0,0,1,2.54,5,19.85,19.85,0,0,1,1,7.16,19,19,0,0,1-4.21,11.09,20.13,20.13,0,0,1-4,3.79c-2.71-5.32-5.32-10.68-7.45-16.1a131.41,131.41,0,0,1-5.21-17A19.05,19.05,0,0,1,182,212.19Z"/><path d="M211.73,244.15q2.81-.94,5.39-1.59c1.72-.42,3.49-.77,5.29-1s3.72-.44,5.75-.53,4.27-.08,6.71,0c-.21-3.11-.31-4.66-.51-7.77-2.66.57-5.17,1.12-7.54,1.61s-4.64,1-6.83,1.39c-.32-1.09-.6-2-.82-2.8s-.43-1.48-.61-2.11-.34-1.22-.48-1.76-.28-1.12-.43-1.74a45,45,0,0,1,4.59-.2c1.6,0,3.28.1,5,.28-.32-3.1-.49-4.65-.81-7.75q-2.76.9-5.16,1.53c-1.6.42-3.17.8-4.69,1.14q-.57-3-.92-5.63c-.24-1.78-.43-3.5-.58-5.15s-.27-3.28-.35-4.88-.13-3.25-.15-5c2.68-.33,5.5-.56,8.45-.66s6-.08,9.27.12l-.5-7.78c-1.48.28-3.38.56-5.71.89l-7.53,1.05L210.2,197q-4.32.61-8.22,1.13a123.09,123.09,0,0,1,7,22.56A192.12,192.12,0,0,1,211.73,244.15Z"/><path d="M249.18,240.63c.33-1.69.62-3.19.86-4.48s.49-2.49.75-3.6.56-2.18.88-3.2.69-2.1,1.11-3.24c5.31.33,10.5.81,15.78,1.46.2,1.2.37,2.34.53,3.4s.28,2.17.39,3.32.19,2.38.25,3.71.11,2.85.12,4.58c4.15.67,6.22,1.07,10.33,2-1.64-6.36-3.32-12.72-4.78-19.11-1.15-5.05-2.33-10.1-3.34-15.17-.86-4.31-1.49-7.79-1.79-10.42s-.49-4.25-.54-4.84c-4.84-.6-7.27-.83-12.12-1.13-1,3.53-2.2,7.27-3.65,11.24s-3,8-4.67,12.06-3.37,8.12-5.11,12.11-3.42,7.77-5.05,11.33C243.15,240.53,245.16,240.52,249.18,240.63Zm7.73-24.38q1-2.16,2-4.07c.66-1.27,1.3-2.46,1.92-3.55s1.19-2,1.73-2.85q.58,1.33,1.23,3.12c.43,1.19.86,2.48,1.27,3.85s.83,2.83,1.23,4.37.77,3.07,1.12,4.6c-5-.64-7.46-.87-12.45-1.15Q255.9,218.4,256.91,216.25Z"/><path d="M295.66,239.61q.87-4.06,2-8.08c.79.16,1.56.3,2.31.43s1.5.24,2.27.32a22.75,22.75,0,0,1,.66,9.39,24.07,24.07,0,0,1-3.13,8.87c3.75,1.41,5.6,2.17,9.27,3.83a41.36,41.36,0,0,0,1.66-11.46,36.73,36.73,0,0,0-1.47-10.54,19.92,19.92,0,0,0,7.61-2.17,12.26,12.26,0,0,0,4.82-4.41,10,10,0,0,0,1.31-6.11,14.1,14.1,0,0,0-2.85-7,23,23,0,0,0-5.19-5.27,31,31,0,0,0-6-3.38,42.4,42.4,0,0,0-6.27-2.11c-2.12-.54-4.21-1.05-6.27-1.55a123.72,123.72,0,0,1-3.83,23,180.49,180.49,0,0,1-8.07,22.25c3.84,1,5.75,1.57,9.53,2.83Q294.8,243.67,295.66,239.61Zm6.74-22.53a80.36,80.36,0,0,1,3.68-8,22,22,0,0,1,6.57,4.35,10.63,10.63,0,0,1,2.9,4.64,5.88,5.88,0,0,1-.33,4.17,6.66,6.66,0,0,1-3.12,3,15.06,15.06,0,0,1-5.43,1.42,25,25,0,0,1-7.47-.56Q300.76,221.24,302.4,217.08Z"/><path d="M172.34,332.82a21.74,21.74,0,0,0,3.86-13.08,54.46,54.46,0,0,0-.43-6.74c-.29-2.2-.69-4.79-1.21-7.69l-.42-2.57c-.08-.53-.16-1-.24-1.55a26.65,26.65,0,0,0,2.86-1.94c5.08-3.92,9.08-9.83,9.48-16.38.36-6-3.36-12.67-10-12.85a8.12,8.12,0,0,0-1.11,0,10.74,10.74,0,0,0-8.66,3.58,15.47,15.47,0,0,0-2.71,5.5,33.89,33.89,0,0,0-1,8.86,78.4,78.4,0,0,0,.64,9.88c.09.65.18,1.32.28,2-9.94,2.11-21.61-1.12-29.53-7.14-4.43-3.37-8.17-8.75-7.12-14.58a9.45,9.45,0,0,1,5-7,7.34,7.34,0,0,1,4.72-.57c3,.84,4.65,5.24,1.34,6.76-2.92,1.34-.38,5.65,2.53,4.32a8,8,0,0,0,3.07-12.07c-3.57-4.95-10.52-5.2-15.35-2.05-13.12,8.54-4.15,25.33,6.19,31.39,8.79,5.15,19.91,7.83,30,5.8.23,1.31.48,2.64.76,4a97,97,0,0,1,1.88,10.79c.09,1.29.14,2.25.14,2.87a18,18,0,0,1-2.28,9,7.61,7.61,0,0,1-2.59,3,4.32,4.32,0,0,1-2.11.9,3.2,3.2,0,0,1-2.51-1c-1.63-1.36-2.45-3.59-2.45-6.64,0-1.23,0-2.15.07-2.82a3.51,3.51,0,0,0-.11-.94,1.42,1.42,0,0,0-1.31-1,2,2,0,0,0-2.17,1.49l-.21.87a.41.41,0,0,0,0,.16c-.1,1.27-.14,2.15-.14,2.69a18.36,18.36,0,0,0,.52,4.51,10.07,10.07,0,0,0,3,4.9,6.08,6.08,0,0,0,4.46,1.78h.3c.35,0,.78,0,1.31-.07A15.33,15.33,0,0,0,172.34,332.82Zm6.55-43.21a20.22,20.22,0,0,1-3.6,4.38,1.48,1.48,0,0,1-2.46-.94c-.29-2.8-.46-5.31-.51-7.51h0l-.07-2.57a13.63,13.63,0,0,1,2-7.48h0a3.43,3.43,0,0,1,1.47-.34,8.49,8.49,0,0,1,4.13,3.74,12.65,12.65,0,0,1,1.37,3A14.6,14.6,0,0,1,178.89,289.61Z"/><path d="M306.35,357.86a11,11,0,0,1,4.89-2.19,62.19,62.19,0,0,0,24.12-9.3,4.66,4.66,0,1,0-6.75-4.14,4.73,4.73,0,0,0,.49,2.06,57.06,57.06,0,0,1-9.75,4.23,1.65,1.65,0,0,1-1.84-2.53c4.46-6.23,8-13.16,11.72-19.92a33.94,33.94,0,0,0,3.8-.93c4.13-1.26,9.15-3.47,11.69-7.15,2.35-3.39,1.69-7.79-2.27-9.54-7.27-3.19-12.65,4.94-16.43,12.34a1.44,1.44,0,0,1-.8.23l-.13-.06a3.36,3.36,0,0,1-.62-.29,7.13,7.13,0,0,1-.22-2.23,31.74,31.74,0,0,1,.41-4.94c.29-1.78.45-2.86.5-3.24l.2-1.67a42.43,42.43,0,0,0,.65-6.69,6,6,0,0,0-.49-2.94,2.37,2.37,0,0,0-2.5-1,4.34,4.34,0,0,0-3.1,1.66c-.12.17-.28.38-.45.64,0,0,0-.09-.05-.13a7.83,7.83,0,0,0-3.18-4.68,8.23,8.23,0,0,0-5.47-1.31,11.88,11.88,0,0,0-6.93,3.08,24.15,24.15,0,0,0-7.43,13A115.26,115.26,0,0,1,284.85,325a26.39,26.39,0,0,1-4.26,3.83,9.94,9.94,0,0,1-2.39,1.31c-.57.16-.72.19-.73.19s-.46,0-.85-.55a2.28,2.28,0,0,1-.46-1,24.44,24.44,0,0,1-.21-3.59c.23-3.06.78-7.08,1.61-11.93a126.8,126.8,0,0,1,7.46-26c.09-.2.3-.6.54-1.06a12.41,12.41,0,0,0,1.4-3.14l1.23-2.7.27-.61,15.32-3.46c2.89-.64,5.71-1.43,8.52-1.9,7.2-1.19,9.08,3.22,9.23,5.37a11,11,0,0,0,3,7,12.32,12.32,0,0,0,1.21,1,2.4,2.4,0,0,0,.38.26l.24.14.11.07.45.27.14.07.54.25a7.79,7.79,0,0,0,1.14.42,10.68,10.68,0,0,0,4.79.29,11.92,11.92,0,0,0,7.94-5.1,12.86,12.86,0,0,0,.81-1.41,4.11,4.11,0,0,0,.16-.38l.27-.66a11.87,11.87,0,0,0,.58-2.56,12.54,12.54,0,0,0-.45-5.08,14.22,14.22,0,0,0-2.24-4.49c-.24-.34-.53-.66-.8-1l-.53-.55-.26-.27-.16-.14a15.26,15.26,0,0,0-2-1.54,18.59,18.59,0,0,0-9.23-2.81,31.65,31.65,0,0,0-9,1.07c-2.84.71-5.42,1.5-8.19,2.27l-8.4,2.36-10.08,2.8a41.43,41.43,0,0,0,1.66-4.86,10.68,10.68,0,0,0,.39-3.06,2,2,0,0,0-.6-1.53,2.24,2.24,0,0,0-1.76-.48,5.41,5.41,0,0,0-3,1.45,27.85,27.85,0,0,0-4.9,6c-1.14,1.77-2.28,3.69-3.4,5.72l-14.08,3.83c-6.09,1.66-12.18,3.19-18.2,4.5-3,.65-6,1.26-8.95,1.74s-5.92.92-8.76,1.15a38.63,38.63,0,0,1-8.21-.12c-.69-.09-1.24-.19-1.91-.33l-.52-.12-.25-.05-.19-.06c-.3-.08-.61-.15-.91-.25a20.82,20.82,0,0,1-3.44-1.4,16.51,16.51,0,0,1-5.37-4.32,14.24,14.24,0,0,1-.91-1.32l-.36-.64-.4-.84-.23-.64a5.31,5.31,0,0,1-.21-.71,8.84,8.84,0,0,1-.28-1.45,10.86,10.86,0,0,1,.76-5.49,8.14,8.14,0,0,1,1.3-2.12,7.84,7.84,0,0,1,.79-.83,7.45,7.45,0,0,1,.88-.65c1.9-1.25,3.16,1.51,3.16,3,0,2.11,2.26,3.82,5.06,3.82a6,6,0,0,0,3.09-.82l.38-.23h0a1.25,1.25,0,0,0,.19-.15,5,5,0,0,0,1.19-1.27,5.2,5.2,0,0,0,.79-2.38,4.73,4.73,0,0,0-.78-3,10.9,10.9,0,0,0-3.68-3.2,12.55,12.55,0,0,0-5.43-1.53,12,12,0,0,0-3.27.32,11.41,11.41,0,0,0-1.22.38l-1.19.55-.21.11c-.07,0,.08-.06-.16.09l0,0-.15.1-.3.19a12.52,12.52,0,0,0-4.64,5.79,14.38,14.38,0,0,0-1,3.77,15.24,15.24,0,0,0,0,4.05,13.53,13.53,0,0,0,.41,2.07,9.54,9.54,0,0,0,.31,1l.2.51.1.25,0,.13.08.19.4.84.56,1a18,18,0,0,0,1.25,1.8,21.09,21.09,0,0,0,6.82,5.58,24.9,24.9,0,0,0,4.19,1.72c.36.12.73.21,1.1.32l.33.08.25.06.52.12c.7.16,1.54.31,2.27.41a44.2,44.2,0,0,0,9.2.29c3.07-.2,6.11-.61,9.15-1.05s6.14-1,9.23-1.55c6.18-1.16,12.38-2.59,18.56-4l9.06-2.09c-.21.41-.68,1.47-1.31,2.9l-.59,1.33c-.18.34-.29.56-.37.73l-2.48,6.75c-1.5,4.82-2.69,9.31-3.54,13.35a60.52,60.52,0,0,0-1.12,7.93,125.16,125.16,0,0,1-8.43,10.13,44.74,44.74,0,0,1-4.77,4.57,11.36,11.36,0,0,1-1.6,1.16,19.74,19.74,0,0,1,.81-3.18l4.51-13.93,1.7-5.59a18.05,18.05,0,0,0,.67-4.73l-.08-1.38a3.6,3.6,0,0,0-1.24-2.63,4.14,4.14,0,0,0-2.94-.59,6,6,0,0,0-3,1.19,42.06,42.06,0,0,0-3.82,3.3,111.19,111.19,0,0,0-12.31,13.72l.6-3.37.49-2.5c.57-2.81.9-4.57,1-5.38l.07-.64s0-.07,0-.11a2.83,2.83,0,0,0-.8-2.19,2.39,2.39,0,0,0-1.91-.56,5.68,5.68,0,0,0-1.78.56A5.15,5.15,0,0,0,232.5,305a16,16,0,0,0-2.48,4.5,40.41,40.41,0,0,0-1.62,5.4c-2.53,3.17-5.31,6.33-8.31,9.45a29.79,29.79,0,0,1-7.37,5.91,4.54,4.54,0,0,1-1.64.69c-.09,0-.12,0-.1,0a7.13,7.13,0,0,1-.22-2.23,31.64,31.64,0,0,1,.41-4.94c.29-1.78.45-2.86.5-3.24l.21-1.67a42.27,42.27,0,0,0,.64-6.69,6,6,0,0,0-.49-2.94,2.37,2.37,0,0,0-2.5-1,4.31,4.31,0,0,0-3.1,1.67l-.45.63s0-.09,0-.13a7.78,7.78,0,0,0-3.18-4.68,8.23,8.23,0,0,0-5.47-1.31,11.83,11.83,0,0,0-6.92,3.08,23.94,23.94,0,0,0-7.84,15.6,9.3,9.3,0,0,0-.09,1.5,10.72,10.72,0,0,0,.83,4.33,4.27,4.27,0,0,0,4.47,3.17,9.53,9.53,0,0,0,1.43-.05,9.41,9.41,0,0,0,5.38-2.24c1.52-1.43,2.44-2.31,2.78-2.67.91-.95,2.24-2.51,3.92-4.63l.35-.42a30.15,30.15,0,0,0-.36,4.55,21,21,0,0,0,.3,3.67c.45,2.51,2,5.39,6.73,5.39q.56,0,1.17-.06a13.45,13.45,0,0,0,7.76-3.35c2.12-1.89,4.52-4.28,7.12-7.12,1-1.15,2.12-2.42,3.27-3.8,0,.29,0,.57,0,.86a25.75,25.75,0,0,0,.15,3.21,4.3,4.3,0,0,0,1.19,2.84,4.14,4.14,0,0,0,3,.7l.84-.07a4,4,0,0,0,3.33-2.23c.18-.33.34-.62.5-.89s.31-.53.41-.74.43-.74.91-1.62a68.39,68.39,0,0,1,13-16.67,100.69,100.69,0,0,0-5.11,12.17,30.4,30.4,0,0,0-2,10,13.51,13.51,0,0,0,.85,4.66,4.71,4.71,0,0,0,4.8,3.07,7.51,7.51,0,0,0,.8,0,10.12,10.12,0,0,0,6.31-3l2.43-2.43c2.69-2.93,5.41-6.13,8.11-9.54v.3a25.79,25.79,0,0,0,1.55,8.2,6.49,6.49,0,0,0,5.55,4.35c.7.06,1.3.1,1.81.1.28,0,.54,0,.77,0a11.48,11.48,0,0,0,5.94-2.37,37.14,37.14,0,0,0,5.71-5.57c2.64-3.06,5.21-6.32,7.65-9.68l.06-.08a9.11,9.11,0,0,0,.58,1.85,4.32,4.32,0,0,0,4.37,3.17h.09a9.49,9.49,0,0,0,1.43,0,9.38,9.38,0,0,0,5.38-2.24c1.53-1.42,2.45-2.31,2.79-2.68.91-.95,2.24-2.51,3.92-4.62l.35-.42a30.15,30.15,0,0,0-.36,4.55,21.14,21.14,0,0,0,.3,3.67,6,6,0,0,0,4.2,5.05,10.75,10.75,0,0,0,4.09,1.25c-.46.95-.88,1.81-1.27,2.53-4.05,7.51-8.36,14.53-14,20.38a7.68,7.68,0,0,1-5,2.34c-17.26,1.21-35.35-3.1-52.08-6.66-14-3-28.34-5.62-42.71-4.63-9.36.65-23.64,2.26-26.31,13.37-2.63,10.94,10.71,15.49,18.74,18.05,12.25,3.9,25.33,4.74,38.1,4.14,22.39-1.05,49.21-3.87,67.54-18Zm25.87-79.11c.06,0,.1.09.16.12h0l-.1-.07C332.19,278.76,332.07,278.67,332.22,278.75ZM308,313.6a16.06,16.06,0,0,1-3.49,2.53l-.18.1-.06-.19a11.13,11.13,0,0,1-.51-3.5A24.79,24.79,0,0,1,307.84,300a6.45,6.45,0,0,1,1-1.25,4.3,4.3,0,0,1,2.55-1.4h.28a3.81,3.81,0,0,1,2,.61c1.63.93,2.52,2.65,2.73,5.28a3.18,3.18,0,0,1-.86,2.62l-2,2.09A64.18,64.18,0,0,1,308,313.6Zm32.11-.72c2.6,2.46-3.26,5.26-4.6,5.93-.79.39-1.81.84-3,1.27.58-1,1.17-2,1.8-2.92S338.22,311.09,340.11,312.88ZM194.52,323.81a16.34,16.34,0,0,1-3.5,2.53l-.17.1-.06-.19a10.85,10.85,0,0,1-.51-3.5,24.7,24.7,0,0,1,4.08-12.51,6.41,6.41,0,0,1,1-1.25,4.29,4.29,0,0,1,2.56-1.4h.27a3.81,3.81,0,0,1,2,.61c1.63.93,2.52,2.65,2.73,5.25v0a3.17,3.17,0,0,1-.86,2.61l-2,2.1A62.87,62.87,0,0,1,194.52,323.81Zm61.62,45.46c-14,1.84-28.5,2.77-42.53.41a74,74,0,0,1-20.56-6.3c-3.37-1.67-7.24-3.89-6.29-8.37s5.63-6.74,9.7-7.88c15.27-4.26,32.29-1.59,47.5,1.46,16.13,3.22,33.37,7.62,50.19,8.13a1.36,1.36,0,0,1,.59,2.56l-.05,0C282.82,365.34,269.21,367.55,256.14,369.27Z"/><path d="M119.64,389.58a91.52,91.52,0,0,1-4.16,14.52c2.56.52,3.84.77,6.39,1.26a88.71,88.71,0,0,1,1.67-15.14A100.15,100.15,0,0,1,127.47,376c-2.43-.46-3.64-.7-6.06-1.19A95,95,0,0,1,119.64,389.58Z"/><path d="M164.32,390.3a10.82,10.82,0,0,0-.87-4.16,9.31,9.31,0,0,0-2-2.9,8.79,8.79,0,0,0-2.59-1.77,8.18,8.18,0,0,0-2.7-.7,8.64,8.64,0,0,0-4.94.94,10.6,10.6,0,0,0-3.53,3.18,17.6,17.6,0,0,0-2.33,4.6,28.27,28.27,0,0,0-1.24,5.2,30.83,30.83,0,0,0-.27,5.23,14.13,14.13,0,0,0,1,4.74,9.19,9.19,0,0,0,2.63,3.66,10,10,0,0,0,4.75,2,8.06,8.06,0,0,0,3.19-.1,9.91,9.91,0,0,0,3.25-1.36,11,11,0,0,0,2.76-2.58,10,10,0,0,0,1.76-3.72c-2.54-.3-3.81-.45-6.34-.78a4.84,4.84,0,0,1-.18,1.89,4,4,0,0,1-.8,1.44,3.78,3.78,0,0,1-1.22.93,3,3,0,0,1-1.46.32,5.69,5.69,0,0,1-1.68-.29,4.86,4.86,0,0,1-1.46-.89,5.29,5.29,0,0,1-1.31-1.87,10.69,10.69,0,0,1-.78-3.19,21.38,21.38,0,0,1,.16-4.88,24.46,24.46,0,0,1,.76-3.64,15.55,15.55,0,0,1,1.5-3.52,8.27,8.27,0,0,1,2.28-2.54,4.41,4.41,0,0,1,3.17-.74,2.61,2.61,0,0,1,1.88.92,3.19,3.19,0,0,1,.61,1.58,8.83,8.83,0,0,1-.2,2.23C160.6,389.85,161.84,390,164.32,390.3Z"/><path d="M184.88,393.32c-.56-2.68-.91-4.84-1.09-6.5s-.27-2.66-.3-3c-2.33-.2-3.49-.3-5.81-.52-.57,2.22-1.31,4.58-2.2,7.06s-1.91,5-3,7.48-2.36,5-3.7,7.37-2.7,4.63-4.1,6.7c2.63.3,4,.44,6.59.71.29-1.05.55-2,.75-2.79s.42-1.56.63-2.25.43-1.36.67-2,.49-1.31.78-2c3.73.37,5.6.54,9.34.85.16.75.3,1.46.43,2.13s.26,1.36.37,2.08.22,1.5.33,2.33.21,1.8.31,2.89c2.75.21,4.13.31,6.88.5a92.91,92.91,0,0,1-4.42-11.61Q185.71,397.35,184.88,393.32Zm-9.37,6.76c.39-.91.79-1.81,1.2-2.71s.8-1.76,1.18-2.56.74-1.56,1.08-2.26.65-1.3.94-1.81c.19.56.39,1.21.61,1.95s.45,1.55.68,2.42.46,1.77.7,2.73.47,1.92.7,2.88C179.76,400.48,178.34,400.35,175.51,400.08Z"/><path d="M218.23,385.59c-2.45,0-3.68-.08-6.13-.16q.6,4.92.73,10.08a92.85,92.85,0,0,1-.4,11c-1-1.79-1.93-3.55-2.82-5.28s-1.7-3.45-2.46-5.21-1.47-3.52-2.12-5.33-1.25-3.67-1.78-5.6c-2.5-.13-3.76-.19-6.26-.35a99.63,99.63,0,0,1,.27,14.78,91.87,91.87,0,0,1-2.07,15c2.58.15,3.88.22,6.46.35a91.57,91.57,0,0,1-.59-10,95,95,0,0,1,.63-11.08q1.41,2.73,2.77,5.32c.91,1.73,1.79,3.47,2.62,5.23s1.62,3.53,2.37,5.33,1.41,3.67,2,5.59l5.81.16a81.52,81.52,0,0,1-.68-14.72A117,117,0,0,1,218.23,385.59Z"/><path d="M249.86,411c-1.5.2-3,.34-4.34.43-.11-.7-.21-1.31-.28-1.82s-.15-1-.2-1.38-.11-.79-.15-1.15-.08-.72-.12-1.12c.86,0,1.76.11,2.71.22s1.92.26,2.94.45c-.07-2-.1-3-.17-4.93a29.34,29.34,0,0,1-3,.67c-.93.16-1.84.28-2.72.36-.07-1.28-.1-2.49-.09-3.62s0-2.23,0-3.29.08-2.08.14-3.09.14-2.05.23-3.14c1.35,0,2.75.08,4.22.17s3,.23,4.64.42c-.09-2-.13-3-.22-4.93-.7.14-1.62.27-2.74.38s-2.34.2-3.64.26-2.65.07-4,.05-2.71-.1-4-.22a92.73,92.73,0,0,1,1.37,14.88,96.88,96.88,0,0,1-1,14.93c1.27-.17,2.49-.3,3.64-.39s2.33-.17,3.51-.2,2.45,0,3.78,0,2.79.11,4.39.21c-.08-2-.13-3-.21-4.94Q252.11,410.68,249.86,411Z"/><path d="M274.11,406.58q-1.25-1.95-2.48-4.06c-.83-1.41-1.61-2.84-2.36-4.29.53-1.58,1-3,1.52-4.3s1-2.5,1.44-3.65,1-2.24,1.43-3.27,1-2.09,1.51-3.16c-2.5.19-3.75.28-6.25.44-.19,1.13-.35,2-.5,2.77s-.29,1.38-.44,2-.32,1.2-.51,1.81-.41,1.35-.68,2.22c-.39-.83-.71-1.52-1-2.09s-.49-1.14-.73-1.7-.49-1.21-.73-1.92-.53-1.61-.86-2.7c-2.48.17-3.73.25-6.21.39.67,1,1.31,2,1.91,2.95s1.22,2,1.83,3.08,1.25,2.21,1.9,3.43,1.33,2.55,2.06,4q-.81,2.31-1.79,4.59c-.64,1.52-1.3,3-2,4.38s-1.34,2.73-2,4-1.31,2.41-1.91,3.46c3-.14,4.46-.22,7.44-.4.21-1.13.42-2.16.63-3.11s.42-1.86.64-2.73.45-1.71.68-2.52.48-1.66.76-2.53c.36.78.7,1.54,1,2.28s.66,1.54,1,2.37.67,1.72,1,2.66.7,2,1.07,3.12c2.92-.21,4.37-.32,7.29-.57-.74-1-1.52-2-2.33-3.2S274.94,407.88,274.11,406.58Z"/><path d="M295.69,387.43a9.28,9.28,0,0,0-2.72-2.6,11,11,0,0,0-3.45-1.52,15.49,15.49,0,0,0-3.31-.4,21.62,21.62,0,0,0-3.15.23c-1,.16-2,.28-3,.37a96,96,0,0,1,2.57,15,90.52,90.52,0,0,1,.15,14.61c2.58-.23,3.87-.36,6.44-.63q-.83-3-1.34-5.57t-.88-5.24a16.11,16.11,0,0,0,4.78-1.75,11.57,11.57,0,0,0,3.25-2.68,8.92,8.92,0,0,0,1.7-3.25,7.92,7.92,0,0,0,.21-3.41A7.8,7.8,0,0,0,295.69,387.43Zm-3.06,6.8a7.47,7.47,0,0,1-2.22,2.33,10.65,10.65,0,0,1-3.82,1.59q-.33-3.21-.46-6c-.08-1.89-.1-3.75,0-5.58a10.45,10.45,0,0,1,3.87.83,6.22,6.22,0,0,1,2.4,1.83,4.5,4.5,0,0,1,.27,5.05Z"/><path d="M313.37,405.22c-1.49.36-2.92.67-4.3.92a93.64,93.64,0,0,1-2.45-12.48,91.44,91.44,0,0,1-.67-13.19c-2.44.34-3.65.5-6.09.82A101.67,101.67,0,0,1,303,396a89.18,89.18,0,0,1,.7,14.77c1.4-.35,3.42-.73,6-1.15a82.49,82.49,0,0,1,9.08-.87c-.3-2-.46-2.92-.76-4.88C316.4,404.42,314.85,404.86,313.37,405.22Z"/><path d="M334.89,385.18c-1.25-2.43-2.17-4.42-2.79-6s-1-2.5-1.1-2.85c-2.3.43-3.44.64-5.74,1.05,0,2.3,0,4.76-.23,7.39s-.51,5.3-.93,8-1,5.41-1.59,8.08-1.37,5.18-2.17,7.55c2.62-.41,3.93-.63,6.54-1.07,0-1.1,0-2.06,0-2.89s0-1.61,0-2.34.06-1.42.11-2.09.13-1.39.22-2.16c3.7-.64,5.54-1,9.23-1.68l1,1.94c.3.6.61,1.24.91,1.9s.61,1.39.94,2.17.68,1.67,1.07,2.69c2.72-.52,4.07-.8,6.78-1.36a93.18,93.18,0,0,1-7.37-10Q336.77,388.85,334.89,385.18Zm-7.23,9c.14-1,.29-1.95.44-2.93s.3-1.91.45-2.79.3-1.7.44-2.46.27-1.43.42-2c.33.49.7,1.06,1.11,1.72s.85,1.38,1.3,2.15.92,1.58,1.41,2.44l1.44,2.59C331.87,393.45,330.47,393.71,327.66,394.2Z"/><path d="M350.74,372.24c-2.41.54-3.61.81-6,1.32A95.68,95.68,0,0,1,349,387.78a93.2,93.2,0,0,1,2,15c2.54-.55,3.81-.83,6.34-1.4a88.08,88.08,0,0,1-4.51-14.55A99,99,0,0,1,350.74,372.24Z"/><path d="M379.61,380.62a114.78,114.78,0,0,1-2.78-15c-2.38.66-3.58,1-6,1.62q2,4.55,3.62,9.44a91.65,91.65,0,0,1,2.78,10.63q-2.2-2.14-4.23-4.23c-1.35-1.39-2.64-2.82-3.88-4.27s-2.43-3-3.58-4.5-2.26-3.15-3.33-4.85c-2.44.61-3.67.91-6.12,1.49a98.29,98.29,0,0,1,4.53,14.07A92.25,92.25,0,0,1,363,400c2.53-.6,3.79-.9,6.32-1.53a90,90,0,0,1-3.46-9.39,93.44,93.44,0,0,1-2.59-10.79l4.2,4.29c1.37,1.39,2.72,2.81,4,4.24s2.58,2.91,3.82,4.42,2.41,3.1,3.54,4.77c2.26-.6,3.39-.91,5.65-1.54A79.83,79.83,0,0,1,379.61,380.62Z"/><path class="cls-1" d="M376.85,243.21a17.16,17.16,0,0,1-1.92-11c16.44-97.1-32.39-149.14-112.79-147.7-69.19,1.24-86,51.93-89.72,69.34a11.14,11.14,0,0,1-6.27,7.83c-6.52,2.94-16.27,9-12.1,18,6.07,13-.7,19,8.19,19s39.52-19.5,82.7-19.5,73.82,19.5,82.7,19.5,2.12-6,8.19-19l0-.09a4,4,0,0,1,7.08-.38c7.59,12.91,3.89,39.43,2.12,54.28a16.49,16.49,0,0,1-2.92,7.56,20.28,20.28,0,0,0-3.71,12.61,20.42,20.42,0,0,0,40.82-.85A20.26,20.26,0,0,0,376.85,243.21ZM332.21,178a35.24,35.24,0,0,0-3.36,14.74c0,.64-.06,1.38-.11,1.91-.25,0-.61,0-1.1,0-2,0-7.32-2.06-12.94-4.24-14.7-5.71-39.3-15.26-69.76-15.26s-55.06,9.55-69.76,15.26c-5.61,2.18-10.92,4.24-12.94,4.24-.49,0-.85,0-1.1,0,0-.53-.08-1.27-.11-1.91A35.24,35.24,0,0,0,157.67,178a5.14,5.14,0,0,1-.17-4.56c2.26-5.07,11.89-8.95,15.07-9.91a4.19,4.19,0,0,0,.62-.24c9.1-4.47,23.1-8.29,40.47-11.07a197.78,197.78,0,0,1,62.57,0c17.37,2.78,31.36,6.6,40.46,11.07a6.44,6.44,0,0,0,.61.24c3.19,1,12.82,4.84,15.08,9.91A5.14,5.14,0,0,1,332.21,178Zm26.63,91.25a16.42,16.42,0,1,1,16.42-16.42A16.44,16.44,0,0,1,358.84,269.22Z"/></svg>